# xmcd
#
# Track frame offsets: 
#        150
#        26586
#        45009
#        58338
#        76322
#        96077
#        112053
#        131554
#
# Disc length: 1965 seconds
#
# Revision: 0
# Processed by: cddbd v1.5.2PL0 Copyright (c) Steve Scherf et al.
# Submitted via: ExactAudioCopy v1.0b4
#
DISCID=6107ab08
DTITLE=Otis Rush and Little Walter - Live At The Chicago Blues Festival
DTITLE=(LP)
DYEAR=1986
DGENRE=Blues
TTITLE0=Otis Rush - It's Hard For Me To Believe, Baby
TTITLE1=Otis Rush - May Be The Last Time
TTITLE2=Otis Rush - I Feel Good
TTITLE3=Otis Rush - Otis' Blues
TTITLE4=Little Walter - Goin' Down Slow
TTITLE5=Little Walter - Walter's Blues
TTITLE6=Little Walter - Lovin' You All The Time
TTITLE7=Little Walter - Blue Mood
EXTD=
EXTT0=
EXTT1=
EXTT2=
EXTT3=
EXTT4=
EXTT5=
EXTT6=
EXTT7=
PLAYORDER=
